<?xml version="1.0" standalone="no"?>
<!DOCTYPE svg PUBLIC "-//W3C//DTD SVG 20010904//EN"
 "http://www.w3.org/TR/2001/REC-SVG-20010904/DTD/svg10.dtd">
<svg version="1.0" xmlns="http://www.w3.org/2000/svg"
 width="1216.000000pt" height="1216.000000pt" viewBox="0 0 1216.000000 1216.000000"
 preserveAspectRatio="xMidYMid meet">
<metadata>
Created by potrace 1.11, written by Peter Selinger 2001-2013
</metadata>
<g transform="translate(0.000000,1216.000000) scale(0.100000,-0.100000)"
fill="#000000" stroke="none">
<path d="M5367 7984 c-1 -1 -33 -5 -71 -9 -203 -17 -467 -113 -597 -215 -20
-17 -40 -30 -43 -30 -3 0 -27 -20 -54 -45 -26 -25 -50 -45 -54 -45 -5 0 -8 -4
-8 -9 0 -5 -18 -28 -40 -52 -59 -64 -132 -173 -180 -268 -23 -46 -43 -88 -44
-95 -1 -6 -4 -15 -7 -21 -6 -9 -29 -76 -35 -100 -2 -5 -12 -44 -23 -85 -11
-41 -23 -93 -26 -115 -3 -22 -8 -47 -10 -55 -5 -18 -15 -103 -20 -168 -6 -66
-5 -359 0 -407 3 -22 7 -58 9 -80 13 -129 87 -423 116 -460 5 -5 8 -14 8 -18
1 -15 86 -177 94 -177 4 0 8 -5 8 -10 0 -43 242 -299 321 -340 13 -7 26 -16
29 -19 3 -3 16 -12 29 -19 13 -8 40 -23 59 -34 20 -11 56 -28 81 -37 25 -10
55 -21 66 -26 23 -9 21 -9 95 -30 30 -8 69 -17 85 -20 17 -3 55 -10 85 -17
116 -23 515 -13 660 17 14 3 41 7 60 10 19 3 45 7 58 10 12 3 32 7 45 10 12 3
35 8 51 10 15 3 43 12 61 19 19 8 36 12 39 9 2 -3 11 -1 18 3 7 5 15 9 18 10
33 6 207 78 222 91 15 14 17 67 16 647 l0 633 -469 0 -469 0 0 -79 c0 -55 4
-78 13 -79 6 0 174 -2 372 -2 l360 -2 0 -508 c0 -440 -2 -509 -15 -517 -21
-14 -175 -69 -208 -75 -15 -2 -43 -9 -62 -15 -19 -6 -57 -13 -85 -16 -27 -3
-56 -7 -63 -9 -47 -16 -372 -24 -497 -12 -125 12 -253 38 -310 62 -16 7 -55
23 -85 35 -30 12 -67 31 -82 42 -16 11 -28 16 -28 11 0 -4 -4 -3 -8 3 -4 5
-24 20 -44 33 -21 12 -38 27 -38 32 0 5 -5 9 -11 9 -13 0 -124 112 -149 149
-8 13 -24 34 -36 47 -17 21 -76 127 -80 144 0 3 -10 26 -22 52 -21 47 -60 166
-67 203 -2 11 -11 55 -20 99 -9 43 -14 85 -11 92 3 8 2 14 -2 14 -24 0 -22
544 3 670 2 13 7 42 11 65 9 63 43 181 75 259 16 39 29 77 29 84 0 6 4 12 9
12 5 0 13 10 17 23 24 79 183 262 293 336 82 56 231 124 300 137 14 3 28 7 33
10 5 3 25 8 46 10 20 3 44 6 52 9 63 18 413 26 515 12 22 -3 58 -8 80 -11 22
-3 51 -8 65 -11 14 -4 36 -8 50 -9 14 -2 32 -6 40 -9 8 -3 65 -21 125 -40 87
-27 206 -77 297 -124 3 -2 6 40 6 92 l0 94 -86 42 c-121 57 -119 56 -197 79
-38 12 -77 24 -85 27 -17 7 -25 9 -60 17 -14 3 -36 8 -50 11 -14 3 -43 8 -65
11 -22 3 -51 8 -65 10 -78 12 -434 27 -443 18z"/>
<path d="M1219 7932 c-14 -3 -5 -32 53 -185 39 -100 101 -263 138 -362 38 -99
103 -270 145 -380 43 -110 78 -206 78 -212 0 -7 3 -13 6 -13 4 0 13 -21 20
-47 8 -27 18 -55 23 -63 4 -8 53 -134 108 -280 55 -146 104 -274 109 -285 5
-11 37 -94 71 -185 34 -91 65 -174 70 -185 5 -11 22 -56 38 -100 17 -44 33
-89 38 -100 4 -11 8 -22 9 -25 1 -3 7 -18 14 -35 7 -16 39 -102 72 -190 33
-88 64 -169 69 -180 5 -11 14 -35 22 -52 7 -18 17 -33 23 -34 5 0 62 -1 125
-2 l115 0 22 41 c12 23 22 45 22 47 -1 6 31 91 99 265 24 63 46 122 48 130 3
14 43 118 64 165 5 11 25 65 46 120 66 178 82 219 103 268 11 26 18 47 14 47
-3 0 0 6 6 14 7 8 14 22 16 32 2 11 29 84 60 164 31 80 68 177 82 215 14 39
30 81 36 95 6 14 11 27 12 30 1 3 5 14 10 25 4 11 36 94 70 185 34 91 66 174
70 185 5 11 9 22 10 25 1 3 5 14 10 25 41 107 55 145 55 154 0 6 4 11 8 11 4
0 8 8 9 18 0 9 35 105 78 212 42 107 81 211 87 230 5 19 14 40 19 46 5 6 10
19 12 30 4 17 15 50 34 94 17 41 12 44 -85 45 -52 0 -97 -4 -102 -10 -5 -5
-17 -33 -28 -60 -10 -28 -23 -59 -27 -70 -4 -11 -7 -23 -7 -27 1 -5 -2 -8 -6
-8 -4 0 -8 -8 -9 -17 -1 -10 -7 -31 -14 -48 -7 -16 -13 -32 -14 -35 -1 -3 -5
-12 -8 -20 -4 -8 -36 -94 -72 -190 -36 -96 -70 -183 -75 -192 -6 -10 -10 -23
-10 -29 0 -6 -6 -25 -14 -42 -7 -18 -28 -70 -45 -117 -18 -47 -36 -94 -41
-105 -5 -11 -81 -213 -170 -450 -89 -236 -165 -439 -170 -450 -5 -11 -16 -38
-23 -60 -17 -47 -94 -251 -106 -280 -5 -11 -18 -45 -29 -75 -11 -30 -34 -90
-51 -134 -17 -43 -31 -85 -31 -92 0 -8 -5 -14 -10 -14 -6 0 -10 -6 -9 -12 2
-11 -6 -36 -28 -88 -8 -19 -8 -19 -17 -52 -16 -55 -16 -53 -106 187 -28 77
-79 212 -112 300 -83 218 -101 268 -133 355 -15 41 -33 89 -41 107 -8 17 -14
34 -14 38 0 4 -6 21 -14 38 -8 18 -31 77 -51 132 -20 55 -47 127 -60 160 -13
33 -33 87 -45 120 -23 63 -76 206 -90 240 -20 50 -104 275 -106 285 0 3 -8 22
-17 42 -10 21 -17 44 -17 51 0 8 -3 17 -7 21 -5 4 -8 11 -9 14 0 4 -8 24 -17
46 -9 21 -17 42 -17 47 0 5 -11 33 -25 64 -13 30 -24 58 -25 60 -1 8 -7 25
-45 125 -20 52 -37 102 -38 110 -1 8 -4 17 -8 20 -3 3 -14 29 -25 59 l-21 55
-94 1 c-52 0 -101 -1 -110 -3z"/>
<path d="M7044 7929 c-2 -3 15 -53 37 -110 22 -57 51 -133 64 -169 12 -36 27
-76 33 -90 6 -14 30 -74 52 -135 23 -60 45 -119 50 -130 14 -33 83 -213 196
-515 30 -80 61 -158 68 -175 12 -25 26 -64 31 -85 1 -3 6 -16 12 -30 22 -52
103 -267 103 -274 0 -3 9 -25 19 -49 11 -23 33 -80 51 -127 17 -47 35 -94 40
-105 5 -11 41 -105 81 -210 39 -104 80 -210 89 -235 10 -25 27 -72 39 -105 13
-33 26 -69 31 -80 5 -11 23 -58 40 -105 17 -47 36 -94 41 -105 5 -11 13 -32
19 -47 5 -16 17 -28 27 -29 105 -4 235 0 242 7 4 5 18 38 31 74 13 36 28 71
33 78 5 6 7 12 4 12 -3 0 2 19 12 43 23 52 33 79 37 92 1 6 41 111 89 235 48
124 96 250 107 280 11 30 35 93 53 140 18 47 59 153 90 235 32 83 70 185 87
227 16 43 29 81 30 85 0 5 5 17 11 28 6 11 12 25 13 30 2 6 24 64 49 130 61
156 96 248 99 260 2 6 8 21 13 35 6 14 11 28 12 33 0 4 7 20 15 36 9 16 12 31
9 35 -4 3 -2 6 4 6 5 0 10 6 10 13 0 6 17 55 38 107 20 52 79 208 131 345 52
138 98 259 103 270 12 29 31 76 31 78 0 1 -46 2 -102 2 l-102 0 -15 -35 c-8
-19 -16 -41 -17 -48 -1 -8 -9 -28 -17 -45 -15 -33 -70 -176 -73 -189 -1 -5 -3
-10 -4 -13 -1 -3 -3 -8 -5 -12 -1 -5 -5 -15 -8 -23 -4 -8 -47 -123 -97 -255
-50 -132 -95 -249 -100 -260 -5 -11 -18 -47 -30 -80 -11 -33 -24 -69 -29 -80
-25 -55 -91 -239 -91 -251 0 -8 -4 -14 -10 -14 -5 0 -10 -6 -10 -14 0 -19 -69
-198 -84 -215 -6 -8 -9 -15 -7 -15 8 -2 -21 -96 -29 -96 -4 0 -7 -6 -7 -12 0
-7 -20 -62 -43 -123 -55 -143 -83 -216 -179 -475 -17 -47 -35 -94 -40 -105
-30 -69 -61 -152 -61 -162 0 -6 -7 -24 -14 -40 -8 -15 -26 -57 -40 -93 -19
-51 -26 -61 -31 -45 -15 43 -47 131 -56 150 -5 11 -25 63 -44 115 -20 52 -38
102 -42 110 -3 8 -7 17 -7 20 -1 5 -31 89 -43 120 -4 8 -7 17 -8 20 -4 11 -18
47 -36 88 -10 23 -16 42 -14 42 2 0 -3 17 -12 38 -16 38 -342 899 -347 917 -2
6 -6 17 -9 25 -3 8 -42 112 -87 230 -44 118 -93 249 -109 290 -16 41 -39 102
-51 135 -12 33 -26 69 -30 80 -5 11 -32 83 -61 160 -28 77 -56 144 -61 150 -9
10 -207 14 -214 4z"/>
<path d="M10630 7930 c-7 -4 -97 -225 -104 -255 -1 -5 -9 -26 -18 -45 -8 -19
-21 -53 -28 -75 -7 -22 -15 -44 -19 -50 -3 -5 -6 -15 -7 -21 -1 -6 -9 -27 -17
-45 -18 -39 -100 -258 -107 -284 -2 -5 -16 -38 -31 -72 -16 -35 -25 -63 -22
-63 4 0 2 -5 -5 -12 -7 -7 -12 -18 -12 -26 0 -8 -6 -28 -14 -45 -7 -18 -24
-59 -36 -92 -13 -33 -29 -74 -37 -92 -8 -17 -16 -37 -17 -45 -2 -7 -8 -26 -15
-43 -15 -36 -119 -306 -137 -355 -7 -19 -38 -100 -69 -180 -31 -80 -57 -149
-59 -155 -2 -5 -8 -23 -15 -40 -6 -16 -16 -43 -22 -60 -6 -16 -15 -39 -20 -50
-26 -61 -192 -502 -192 -512 0 -7 -4 -13 -9 -13 -4 0 -7 -3 -6 -7 1 -5 -4 -19
-12 -33 -7 -14 -12 -26 -11 -28 2 -2 -30 -95 -48 -137 -25 -58 -30 -75 -23
-76 4 0 50 -1 103 -2 l96 -2 32 85 c18 47 36 94 41 105 34 83 73 192 73 203 0
6 3 12 7 12 4 0 7 6 7 13 2 20 27 81 38 89 6 4 7 8 3 8 -7 0 19 77 42 125 5
11 26 65 45 120 41 115 58 155 65 156 20 4 1343 3 1349 -1 10 -7 22 -38 101
-247 39 -103 74 -195 77 -203 3 -8 7 -19 9 -25 9 -30 164 -428 168 -432 8 -9
207 -9 213 0 2 4 -10 44 -27 90 -17 45 -45 118 -62 162 -16 44 -34 89 -39 100
-4 11 -22 58 -39 105 -17 47 -35 94 -40 105 -4 11 -27 70 -50 130 -23 61 -46
119 -51 130 -12 29 -60 158 -63 170 -1 6 -7 19 -13 30 -6 11 -11 24 -11 28 0
4 -12 38 -27 75 -38 94 -48 120 -103 267 -27 72 -53 139 -57 150 -5 11 -9 22
-10 25 -1 3 -7 19 -14 35 -6 17 -16 44 -22 60 -6 17 -16 41 -21 55 -13 31 -18
44 -58 150 -18 47 -38 99 -45 115 -11 25 -25 66 -30 85 -1 3 -7 19 -14 35 -7
17 -37 95 -67 175 -30 80 -59 154 -63 165 -5 11 -27 67 -49 125 -22 58 -59
153 -81 212 -23 58 -41 111 -41 117 0 6 -3 12 -7 12 -27 4 -246 3 -253 -1z
m197 -400 c34 -91 63 -172 65 -180 2 -8 6 -18 11 -21 4 -3 9 -15 12 -27 2 -12
7 -27 10 -32 3 -5 8 -18 10 -27 2 -10 9 -31 16 -48 7 -16 13 -32 14 -35 1 -3
6 -16 12 -30 5 -14 31 -83 58 -155 26 -71 53 -143 60 -160 28 -69 57 -144 59
-156 1 -8 10 -31 19 -53 9 -21 17 -42 17 -47 0 -5 4 -17 10 -27 8 -15 87 -222
94 -247 2 -5 9 -23 16 -40 27 -64 50 -139 45 -144 -8 -8 -1225 -7 -1225 1 0 6
61 171 79 213 5 11 17 45 29 75 11 30 23 64 28 75 4 11 8 22 9 25 5 13 18 47
25 65 16 38 171 445 241 635 22 58 43 114 48 125 8 17 27 67 77 200 4 11 8 25
10 30 2 6 18 49 36 96 27 71 35 84 43 70 6 -9 39 -90 72 -181z"/>
</g>
</svg>
